<?xml version="1.0" encoding="iso-8859-1"?>
<svg width="100" height="100" viewBox="0 0 100 100" fill="none" xmlns="http://www.w3.org/2000/svg">
<path d="M48.3333 50.6115C47.0699 50.6115 46.0041 51.0609 45.1358 51.9588C44.2676 52.8584 43.8335 53.9486 43.8335 55.2296C43.8335 56.5113 44.2676 57.6008 45.1358 58.4996C46.0041 59.3991 47.0699 59.8477 48.3333 59.8477C49.596 59.8477 50.6626 59.3991 51.5309 58.4996C52.3983 57.6008 52.834 56.5113 52.834 55.2296C52.834 53.9486 52.3983 52.8584 51.5309 51.9588C50.6626 51.0609 49.596 50.6115 48.3333 50.6115Z" fill="#292929"/>
<path d="M46.0918 34.9421H50.7198L48.4058 29.6953L46.0918 34.9421Z" fill="#292929"/>
<path d="M81.3803 0H18.6197C8.35273 0 0 8.35272 0 18.6197V70.2863C0 80.5533 8.35273 88.906 18.6197 88.906H37.6918L47.9282 99.1424C48.5004 99.7147 49.2504 100.001 50.0004 100.001C50.7496 100.001 51.4996 99.7147 52.0718 99.1424L62.3082 88.906H81.3803C91.6473 88.906 100 80.5533 100 70.2863V18.6197C100.001 8.35272 91.648 0 81.3803 0V0ZM26.9259 29.0575H23.0638V39.825H20.9131V29.0575H17.0511V27.0899H26.9259V29.0575ZM29.2582 27.0899H31.4074V32.6106H37.7299V27.0899H39.8792V39.825H37.7299V34.6141H31.4074V39.825H29.2582V27.0899ZM36.5092 56.6601V61.6887H34.3226V56.6601L29.5855 48.9529H31.9361L35.4152 54.7474L38.8957 48.9529H41.2456L36.5092 56.6601ZM53.1063 59.9309C51.8185 61.1874 50.2277 61.8161 48.3333 61.8161C46.4382 61.8161 44.8467 61.1874 43.5596 59.9309C42.2725 58.6728 41.6286 57.1064 41.6286 55.2296C41.6286 53.3535 42.2725 51.7864 43.5596 50.5291C44.8475 49.2718 46.4382 48.6439 48.3333 48.6439C50.2277 48.6439 51.8192 49.2718 53.1063 50.5291C54.3942 51.7864 55.0381 53.3535 55.0381 55.2296C55.0381 57.1064 54.3942 58.6728 53.1063 59.9309ZM52.8698 39.825L51.5942 36.9281H45.2175L43.9426 39.825H41.6469L47.2584 27.0899H49.5541L55.1655 39.825H52.8698ZM68.3744 56.0948C68.3744 57.9297 67.8701 59.3411 66.863 60.3314C65.8544 61.3217 64.5604 61.8161 62.9811 61.8161C61.4026 61.8161 60.1086 61.3217 59.1008 60.3314C58.0929 59.3419 57.5886 57.9297 57.5886 56.0948V48.9529H59.7386V56.004C59.7386 57.1705 60.0301 58.0937 60.6129 58.7735C61.1958 59.454 61.9855 59.7943 62.9811 59.7943C63.9775 59.7943 64.7672 59.454 65.3501 58.7735C65.9337 58.0937 66.2252 57.1705 66.2252 56.004V48.9529H68.3744V56.0948ZM68.63 39.825H66.2977L59.0832 30.5331V39.825H56.9325V27.0899H59.0832L66.4792 36.6V27.0899H68.63V39.825ZM80.3992 39.825L76.1717 34.2501L74.3132 36.2544V39.825H72.1639V27.0899H74.3132V33.3026L80.1443 27.0899H82.8765L77.7571 32.6647L82.9497 39.825H80.3992Z" fill="#292929"/>
</svg>
