<?xml version="1.0" encoding="iso-8859-1"?>
<svg width="100" height="100" viewBox="0 0 100 100" fill="none" xmlns="http://www.w3.org/2000/svg">
<path d="M63.3582 66.67H63.3533C62.4328 66.6704 61.6871 67.4171 61.6875 68.3376C61.6879 69.2581 62.4346 70.0038 63.3551 70.0034H63.3584C64.2777 70.0043 65.023 70.7489 65.025 71.6684C65.026 72.5881 65.7719 73.3332 66.6916 73.3334H66.6934C67.6139 73.3325 68.3592 72.5856 68.3584 71.6651C68.3525 68.9067 66.1164 66.6731 63.3582 66.67Z" fill="#292929"/>
<path d="M43.3349 73.3367L46.6683 73.3334C47.5888 73.333 48.3345 72.5863 48.3341 71.6658C48.3337 70.7453 47.587 69.9995 46.6665 69.9999H46.6647L43.3313 70.0033C42.4108 70.0036 41.6651 70.7503 41.6655 71.6708C41.6659 72.5914 42.4126 73.3371 43.3331 73.3367H43.3349Z" fill="#292929"/>
<path d="M43.9896 66.4127L47.1228 67.5496C47.6832 67.7555 48.3107 67.6459 48.7683 67.2625C49.2259 66.8791 49.4433 66.2801 49.3384 65.6926C49.2335 65.1049 48.8224 64.6182 48.2605 64.4166L45.1273 63.2797C44.263 62.9691 43.3105 63.416 42.997 64.2793C42.6835 65.1424 43.1275 66.0965 43.9896 66.4127Z" fill="#292929"/>
<path d="M48.7723 76.106C48.3158 75.7236 47.6901 75.6138 47.1307 75.8179L43.9992 76.9605C43.4399 77.1646 43.0319 77.6517 42.9289 78.238C42.826 78.8246 43.0438 79.4214 43.5002 79.8039C43.9567 80.1863 44.5825 80.2961 45.1418 80.092L48.2733 78.9494C48.8326 78.7453 49.2407 78.2582 49.3436 77.6718C49.4465 77.0853 49.2287 76.4884 48.7723 76.106Z" fill="#292929"/>
<path d="M83.3335 69.9967H83.3317L79.9983 70C79.0825 70.0068 78.3438 70.7516 78.3442 71.6674C78.3446 72.5832 79.0841 73.3271 79.9999 73.3332H80.0015L83.3349 73.3299C84.2554 73.3295 85.0011 72.5828 85.0007 71.6623C85.0003 70.7418 84.254 69.9963 83.3335 69.9967Z" fill="#292929"/>
<path d="M79.0149 67.6228C79.2099 67.6225 79.4032 67.5879 79.5862 67.5211L82.7169 66.3785C83.2763 66.1744 83.6843 65.6873 83.7872 65.101C83.8901 64.5146 83.6724 63.9176 83.2159 63.5351C82.7595 63.1527 82.1337 63.043 81.5743 63.2471L78.4436 64.3896C77.6841 64.667 77.2331 65.4494 77.3737 66.2457C77.5143 67.042 78.2063 67.6226 79.0149 67.6228Z" fill="#292929"/>
<path d="M82.7268 76.9272L79.5936 75.7895C78.7293 75.4789 77.7768 75.9258 77.4633 76.7891C77.1499 77.6523 77.5938 78.6063 78.4559 78.9227L81.5891 80.0604C82.453 80.3695 83.4043 79.9225 83.7174 79.0602C84.0305 78.1975 83.5877 77.2441 82.7268 76.9272Z" fill="#292929"/>
<path d="M34.4438 6.67894C28.2237 6.9764 23.3335 12.1061 23.3335 18.3332C23.3335 19.2537 24.0796 19.9998 25.0001 19.9998C25.9206 19.9998 26.6667 19.2535 26.6667 18.3332C26.6628 15.8219 27.7952 13.4438 29.747 11.8635C31.7282 10.2672 34.3247 9.65199 36.8116 10.1895C39.9808 10.8772 42.456 13.3526 43.1438 16.5217C43.6435 18.7864 43.1786 21.1569 41.8606 23.0651C40.5427 24.9733 38.4903 26.2473 36.1956 26.5819C34.5599 26.8194 33.3433 28.2168 33.3335 29.8696V31.6664C33.3335 32.587 34.0796 33.333 35.0001 33.333C35.9206 33.333 36.6667 32.587 36.6667 31.6664L36.6675 29.8809C42.8308 28.9914 47.2095 23.4186 46.6153 17.2198C46.0214 11.0213 40.664 6.38148 34.4438 6.67894Z" fill="#292929"/>
<path d="M36.1835 37.15C36.0214 37.0028 35.8354 36.884 35.6333 36.7993C35.2272 36.6332 34.7724 36.6332 34.3663 36.7993C34.1624 36.8799 33.9759 36.9991 33.8169 37.15C33.6696 37.3118 33.5509 37.4977 33.4661 37.6994C33.3808 37.9 33.3358 38.1155 33.3335 38.3334C33.336 38.4452 33.3474 38.5563 33.3669 38.6662C33.3847 38.7707 33.4183 38.8719 33.4661 38.9664C33.5026 39.0727 33.5534 39.1739 33.6167 39.2668C33.6833 39.3498 33.7501 39.4328 33.8169 39.5166C34.1364 39.8209 34.5591 39.9934 35.0001 40C35.2187 40.0057 35.4354 39.96 35.6333 39.8666C35.8351 39.7819 36.0212 39.6635 36.1835 39.5166C36.2501 39.4328 36.3169 39.3498 36.3829 39.2668C36.4462 39.1739 36.4968 39.0729 36.5335 38.9664C36.5813 38.8717 36.6151 38.7705 36.6337 38.6662C36.6528 38.5563 36.664 38.445 36.6671 38.3334C36.6645 38.1155 36.6192 37.9 36.5337 37.6994C36.4485 37.4979 36.3302 37.3121 36.1835 37.15Z" fill="#292929"/>
<path d="M73.3334 40V6.6666C73.3291 2.98652 70.3469 0.00429688 66.6666 0H6.6666C2.98652 0.00429688 0.00429687 2.98652 0 6.6666V40C0.00429687 43.6801 2.98652 46.6625 6.6666 46.6666H8.3332V56.6633C8.33203 58.0121 9.14394 59.2285 10.39 59.7447C11.6361 60.2609 13.0705 59.9748 14.0232 59.0201C14.0633 58.9809 14.1008 58.9395 14.1355 58.8955L24.1232 46.6666H66.6664C70.3469 46.6625 73.3291 43.6801 73.3334 40ZM23.3334 43.3334C23.3053 43.3334 23.282 43.348 23.2543 43.3494C23.04 43.3816 22.8291 43.4336 22.6246 43.5049C22.5379 43.5525 22.4557 43.608 22.3789 43.6705C22.2801 43.7352 22.1885 43.8102 22.1059 43.8943C22.0871 43.9152 22.0609 43.924 22.0428 43.9461L11.6668 56.6496V45C11.6668 44.0795 10.9207 43.3334 10.0002 43.3334H6.6666C4.82637 43.3316 3.33516 41.8402 3.3332 40V6.6666C3.33496 4.82637 4.82637 3.33516 6.6666 3.3332H66.6666C68.5068 3.33496 69.998 4.82637 70 6.6666V40C69.9982 41.8402 68.5068 43.3314 66.6666 43.3334H23.3334Z" fill="#292929"/>
<path d="M93.3331 53.3334H91.6665V43.3367C91.6663 41.9886 90.8542 40.7732 89.6087 40.2574C88.3632 39.7416 86.9296 40.0267 85.9763 40.9799C85.9362 41.0191 85.8987 41.0605 85.864 41.1045L75.8763 53.3334H33.3331C29.653 53.3377 26.6706 56.3199 26.6665 60V93.3334C26.6708 97.0135 29.653 99.9959 33.3331 100H93.3331C97.0132 99.9957 99.9956 97.0135 99.9997 93.3334V60C99.9954 56.3199 97.0132 53.3375 93.3331 53.3334ZM96.6663 93.3334C96.6646 95.1736 95.1732 96.6648 93.3329 96.6668H33.3329C31.4927 96.665 30.0015 95.1736 29.9995 93.3334V60C30.0013 58.1597 31.4927 56.6685 33.3329 56.6666H76.6663C76.8995 56.6652 77.1298 56.6144 77.3419 56.5174C77.3913 56.4875 77.4394 56.4552 77.4855 56.4205C77.639 56.3361 77.7782 56.2279 77.8976 56.0998C77.915 56.0804 77.9403 56.074 77.9569 56.0537L88.3329 43.3502V55C88.3329 55.9205 89.0792 56.6666 89.9995 56.6666H93.3329C95.1732 56.6683 96.6644 58.1597 96.6663 60V93.3334Z" fill="#292929"/>
<path d="M64.7366 60.083C59.5621 59.4541 54.5987 62.3351 52.5783 67.1402C50.558 71.9453 51.9717 77.5076 56.041 80.765C56.4348 81.075 56.6655 81.548 56.6668 82.0492V83.3334C56.6705 84.5179 57.3047 85.6109 58.3315 86.2021L58.3334 88.3351C58.3391 89.9404 59.1125 91.4461 60.4143 92.3853C61.2619 93.0007 62.2826 93.3318 63.3301 93.331C63.8877 93.33 64.4416 93.2398 64.9707 93.0632C67.0328 92.3275 68.3899 90.3513 68.3358 88.1625L68.3342 86.2027C69.3615 85.6119 69.9963 84.5185 70 83.3334V82.0541C70.0106 81.5345 70.2563 81.0478 70.6682 80.7308C73.9373 78.1097 75.5373 73.9281 74.8528 69.7941C73.9824 64.6851 69.8768 60.7441 64.7366 60.083ZM63.9235 89.899C63.4002 90.0871 62.818 90.0062 62.3658 89.6826C61.9297 89.3703 61.6698 88.8679 61.6668 88.3316L61.6651 86.6666H65.0018L65.0026 88.1656C65.0369 88.9113 64.6078 89.6007 63.9235 89.899ZM68.5744 78.1373C67.3768 79.0855 66.675 80.5265 66.6668 82.0541V83.3277H66.6651L60 83.3334V82.0492C60.001 80.5345 59.3094 79.1027 58.1227 78.1617C55.3676 75.9502 54.3071 72.2414 55.4762 68.9076C56.6453 65.5738 59.7901 63.3398 63.3229 63.3334C63.6653 63.3334 64.0074 63.3533 64.3475 63.3935C68.0112 63.8633 70.9381 66.6709 71.5602 70.3117C72.052 73.2679 70.9106 76.2597 68.5744 78.1373Z" fill="#292929"/>
</svg>
