<?xml version="1.0" encoding="iso-8859-1"?>
<svg width="111" height="100" viewBox="0 0 111 100" fill="none" xmlns="http://www.w3.org/2000/svg">
<path d="M107.028 18.6344C108.953 18.6344 110.52 16.9976 110.52 15.0678C110.52 13.1429 108.953 11.5012 107.028 11.5012H86.1107V6.96852H107.028C108.953 6.96852 110.52 5.4092 110.52 3.48426C110.52 1.55932 108.953 0 107.028 0H74.3311C71.8081 0 69.7451 1.98063 69.7451 4.50121V95.5085C69.7451 98.0266 71.8081 100 74.3311 100H107.028C108.953 100 110.52 98.4431 110.52 96.5182C110.52 94.5932 108.953 93.0315 107.028 93.0315H86.1107V88.4964H107.028C108.953 88.4964 110.52 86.8571 110.52 84.9298C110.52 83 108.953 81.3632 107.028 81.3632H86.1107V76.8232H107.028C108.953 76.8232 110.52 75.2615 110.52 73.3414C110.52 71.4092 108.953 69.8547 107.028 69.8547H86.1107V65.1598H107.028C108.953 65.1598 110.52 63.6029 110.52 61.678C110.52 59.7482 108.953 58.1913 107.028 58.1913H86.1107V53.4939H107.028C108.953 53.4939 110.52 51.9346 110.52 50.0121C110.52 48.0896 108.953 46.5278 107.028 46.5278H86.1107V41.8305H107.028C108.953 41.8305 110.52 40.2712 110.52 38.3438C110.52 36.4189 108.953 34.862 107.028 34.862H86.1107V30.1622H107.028C108.953 30.1622 110.52 28.6053 110.52 26.6755C110.52 24.7506 108.953 23.1937 107.028 23.1937H86.1107V18.6465H107.028V18.6344Z" fill="#292929"/>
<path d="M61.7441 73.3825C58.9693 70.7772 55.3398 69.4116 51.5359 69.5423C50.9742 69.5569 50.4051 69.6126 49.8458 69.6949L39.87 52.6465L63.2163 12.7409C64.3349 10.828 64.7659 8.61981 64.4052 6.60044C64.0492 4.5738 62.9403 2.91037 61.3204 1.95879L59.5214 0.903103C58.3422 0.21303 56.7272 0.782037 55.9088 2.17671L33.1315 41.1162L10.3446 2.17671C9.52862 0.782037 7.91361 0.210609 6.73685 0.903103L4.93782 1.95637C3.31555 2.90795 2.20659 4.5738 1.84823 6.59802C1.48988 8.61739 1.92087 10.828 3.03952 12.7409L26.3858 52.6465L16.4076 69.6949C15.8507 69.6126 15.2817 69.5544 14.7151 69.5423C10.9136 69.4116 7.28649 70.7772 4.51167 73.3825C1.73201 75.9757 0.131526 79.506 0.00803964 83.3147C-0.221985 90.2155 4.50683 96.2784 11.2526 97.7094C12.0783 97.8886 12.9281 97.9927 13.7804 98.0242C17.5819 98.1501 21.2066 96.7869 23.9887 94.1864C26.7659 91.5859 28.3664 88.0581 28.4899 84.2494C28.5916 81.2372 27.7441 78.3898 26.2042 76.0121L33.1291 64.1743L40.0541 76.0121C38.5117 78.3898 37.6642 81.2372 37.7659 84.2494C37.8942 88.0532 39.4899 91.5811 42.2696 94.1864C45.0468 96.7869 48.6763 98.1501 52.4754 98.0242C53.3301 97.9927 54.1751 97.8886 55.0032 97.7094C61.7514 96.2712 66.4754 90.213 66.2478 83.3147C66.1243 79.506 64.5189 75.9757 61.7441 73.3825ZM21.5044 84.0169C21.4439 85.9564 20.6279 87.753 19.2114 89.0799C17.795 90.4043 15.9451 91.1017 14.008 91.0363C13.5722 91.0218 13.1388 90.9758 12.7126 90.8837C9.28165 90.1477 6.87487 87.0605 6.98867 83.5472C7.05405 81.6029 7.87003 79.8063 9.28407 78.4794C10.7005 77.1549 12.548 76.46 14.4875 76.523C14.9233 76.5399 15.3591 76.5883 15.7804 76.6779C19.2163 77.4164 21.6231 80.4987 21.5044 84.0169ZM32.9354 56.1743C30.7683 56.1743 29.0056 54.4116 29.0056 52.2445C29.0056 50.0774 30.7708 48.3172 32.9354 48.3172C35.1049 48.3172 36.8676 50.0774 36.8676 52.2445C36.8676 54.4116 35.1025 56.1743 32.9354 56.1743ZM53.5359 90.8789C53.117 90.9709 52.6788 91.0218 52.2429 91.0339C50.3059 91.0968 48.4584 90.3995 47.0444 89.075C45.6255 87.7481 44.8095 85.9515 44.7465 84.0121C44.6303 80.4939 47.0371 77.4067 50.4705 76.6731C50.8942 76.5835 51.3277 76.5302 51.7659 76.5205C53.7078 76.4552 55.5528 77.1501 56.9693 78.4745C58.3858 79.8014 59.1993 81.598 59.2623 83.5423C59.3809 87.0557 56.9717 90.1404 53.5359 90.8789Z" fill="#292929"/>
</svg>
