<?xml version="1.0" encoding="iso-8859-1"?>
<svg width="100" height="100" viewBox="0 0 100 100" fill="none" xmlns="http://www.w3.org/2000/svg">
<path d="M96.1601 55.3028L57.3511 16.4544C55.3017 14.4041 52.562 13.2602 49.6713 13.2602C49.434 13.2602 49.1967 13.2602 48.9594 13.2818L20.8935 15.1379C17.8518 15.3321 15.3925 17.7925 15.1984 20.8356L14.5296 30.8067C13.1058 29.9866 11.7468 28.9506 10.5171 27.7204C7.51854 24.7205 5.6633 20.9867 5.275 17.1882C4.90826 13.5839 5.94375 10.3681 8.18729 8.12356C12.9548 3.35384 21.7348 4.41138 27.7967 10.4545C28.8106 11.4688 30.4501 11.4688 31.4641 10.4545C32.478 9.44009 32.478 7.79983 31.4641 6.78545C23.3528 -1.2648 11.2722 -2.30075 4.49839 4.47613C1.13307 7.84299 -0.420153 12.5264 0.0975881 17.7277C0.593756 22.7133 2.98831 27.5693 6.82822 31.411C8.98547 33.5693 11.4879 35.2743 14.1413 36.4397L13.3216 48.936C13.1058 52.0654 14.2707 55.1301 16.4927 57.3531L55.3233 96.2015C57.7825 98.6619 61.04 100 64.5132 100C67.9864 100 71.2438 98.6403 73.7031 96.2015L96.2032 73.691C98.6625 71.2306 100 67.9717 100 64.4969C99.9784 61.0005 98.6194 57.7416 96.1601 55.3028ZM92.5143 70.0004L69.9926 92.5325C68.5257 94.0001 66.5626 94.8202 64.47 94.8202C62.3775 94.8202 60.4144 94.0001 58.9475 92.5325L20.1169 53.6841C18.952 52.5186 18.348 50.9215 18.4558 49.2813L19.2109 37.9721C19.6423 38.0368 20.0738 38.1016 20.5052 38.1447C21.1524 38.2095 21.7996 38.2526 22.4252 38.2526C26.8475 38.2526 30.7953 36.6987 33.7292 33.7635C34.7431 32.7491 34.7431 31.1089 33.7292 30.0945C32.7153 29.0801 31.0758 29.0801 30.0618 30.0945C27.8183 32.3391 24.604 33.375 21.0014 33.0081C20.5052 32.965 20.0306 32.8786 19.556 32.7923L20.3326 21.2241C20.3542 20.7493 20.7425 20.3824 21.2171 20.3392L49.283 18.4831C49.4124 18.4831 49.5418 18.4616 49.6713 18.4616C51.1814 18.4616 52.6483 19.0659 53.7053 20.1234L92.5143 58.9502C93.9813 60.4178 94.801 62.3818 94.801 64.4753C94.801 66.5688 93.9813 68.5328 92.5143 70.0004Z" fill="#292929"/>
<path d="M58.2084 78.3582C59.4136 75.643 62.0753 73.1343 65.278 73.1343C69.5901 73.1343 72.6958 76.643 73.0864 80.8245C73.0864 80.8245 73.2978 81.8631 72.8339 83.7312C72.202 86.276 70.7182 88.5371 68.7158 90.2622L58.2084 99.2534L47.7024 90.2622C45.6999 88.5371 44.2161 86.276 43.5843 83.7312C43.1203 81.8631 43.3318 80.8245 43.3318 80.8245C43.7211 76.643 46.8268 73.1343 51.1389 73.1343C54.3416 73.1343 57.0032 75.643 58.2084 78.3582Z" fill="#ED7161"/>
</svg>
