<svg width="24" height="24" xmlns="http://www.w3.org/2000/svg">
    <path d="M12 24c6.6274 0 12-5.3726 12-12S18.6274 0 12 0 0 5.3726 0 12s5.3726 12 12 12zm0-1.25c5.937 0 10.75-4.813 10.75-10.75S17.937 1.25 12 1.25 1.25 6.063 1.25 12 6.063 22.75 12 22.75zM12.9653 8C12.0593 8 11.5 7.25 11.5 6.519c0-.824.6805-1.519 1.587-1.519 1.0465 0 1.413.7506 1.413 1.3728C14.5005 7.396 13.7682 8 12.9653 8zM9.3 18.021c.3237-2.1306 1.5255-4.9562 1.772-6.6087l-1.2013-.043c0-.6092 0-1.1962.0155-1.7824C11.0566 9.3907 12.6125 9 12.89 9c.123 0 .585.565.724.8913-.277 1.8268-1.7406 6.174-1.864 6.979-.0156.087-.0156.1742.0467.1742.1534 0 .5543-.087.9856-.218.031.566.0772 1.1304.1076 1.6962-.6934.282-1.541.4773-2.8654.4773-.1235 0-.6165-.6094-.7246-.979z"
          class="info" fill-rule="evenodd"></path>
</svg>